<svg xmlns="http://www.w3.org/2000/svg">
    <g id="dropdown">
        <path d="M0 12H18V10H0V12ZM0 7H18V5H0V7ZM0 0V2H18V0H0Z" fill="inherit" />
    </g>
    <g id="logo">
    <path d="M19.78 3.00056C19.78 3.00056 19.58 1.63056 18.98 1.03056C18.23 0.230556 17.38 0.230555 16.98 0.180555C14.2 -0.0194446 10 0.000555568 10 0.000555568C10 0.000555568 5.82 -0.0194446 3.03 0.180555C2.63 0.230555 1.79 0.230556 1.03 1.03056C0.43 1.63056 0.23 3.00056 0.23 3.00056C0.23 3.00056 0.03 4.63056 0 6.23056V7.93056C0.03 9.53056 0.23 11.1306 0.23 11.1306C0.23 11.1306 0.43 12.5306 1.03 13.1306C1.79 13.9306 2.78 13.8906 3.23 13.9806C4.8 14.1306 9.83 14.1606 10 14.1606C10 14.1606 14.2 14.1606 17 13.9606C17.38 13.9206 18.23 13.9206 19 13.1206C19.6 12.5206 19.8 11.1406 19.8 11.1406C19.8 11.1406 20 9.54056 20 7.92056V6.22056C19.98 4.62056 19.78 3.00056 19.78 3.00056ZM7.98 10.0006V4.16056L13.33 7.19056L7.97 10.0006H7.98Z" fill="#606060"/>
    </g>
    <g id="logo2">
        <path fill-rule="evenodd" clip-rule="evenodd" d="M20 8V3L15 0L10 3L5 0L0 3V8L10 14L20 8ZM7 6H5V8H4V6H2V5H4V3H5V5H7V6ZM13 8C12.45 8 12 7.55 12 7C12 6.45 12.45 6 13 6C13.55 6 14 6.45 14 7C14 7.55 13.55 8 13 8ZM16 6C15.45 6 15 5.55 15 5C15 4.45 15.45 4 16 4C16.55 4 17 4.45 17 5C17 5.55 16.55 6 16 6Z" fill="#606060"/>
    </g>
    <g id="logo3">
            <path fill-rule="evenodd" clip-rule="evenodd" d="M14.53 4.36L15.94 2.91C17.21 4.21 17.99 6.02 17.99 8C17.99 9.98 17.21 11.78 15.94 13.09L14.53 11.64C15.43 10.71 15.99 9.42 15.99 8C15.99 6.58 15.43 5.3 14.53 4.36ZM17.36 1.45L18.77 0C20.77 2.05 22 4.88 22 8.01C22 11.13 20.77 13.96 18.76 16L17.36 14.55C18.99 12.89 20 10.58 20 8.01C20 5.44 18.98 3.13 17.36 1.45ZM4.01 8C4.01 6.01 4.79 4.21 6.06 2.91L7.47 4.36C6.57 5.29 6.01 6.58 6.01 8C6.01 9.42 6.57 10.7 7.47 11.64L6.06 13.09C4.79 11.79 4.01 9.99 4.01 8ZM3.24 0L4.64 1.45C3.01 3.11 2 5.42 2 7.99C2 10.56 3.02 12.87 4.64 14.55L3.23 16C1.23 13.95 0 11.12 0 7.99C0 4.87 1.23 2.04 3.24 0ZM14 8C14 9.65685 12.6569 11 11 11C9.34315 11 8 9.65685 8 8C8 6.34315 9.34315 5 11 5C12.6569 5 14 6.34315 14 8Z" fill="#606060"/>
    </g>
</svg>